<svg width="214" height="41" viewBox="0 0 214 41" fill="none" xmlns="http://www.w3.org/2000/svg">
<path d="M68.912 30H65.648L63.464 24.312C63.272 23.784 62.976 23.416 62.576 23.208C62.176 23 61.656 22.896 61.016 22.896H57.92V30H54.848V12.912H62.168C64.104 12.912 65.576 13.336 66.584 14.184C67.592 15.032 68.096 16.248 68.096 17.832C68.096 18.968 67.792 19.936 67.184 20.736C66.592 21.52 65.744 22.08 64.64 22.416C65.648 22.624 66.376 23.328 66.824 24.528L68.912 30ZM61.736 20.496C62.904 20.496 63.768 20.28 64.328 19.848C64.888 19.416 65.168 18.76 65.168 17.88C65.168 17.016 64.888 16.376 64.328 15.96C63.784 15.528 62.92 15.312 61.736 15.312H57.872V20.496H61.736ZM83.0756 17.88V30H80.1236V28.056C79.7556 28.728 79.2276 29.256 78.5396 29.64C77.8516 30.008 77.0676 30.192 76.1876 30.192C75.1316 30.192 74.1956 29.936 73.3796 29.424C72.5636 28.912 71.9316 28.184 71.4836 27.24C71.0356 26.296 70.8116 25.2 70.8116 23.952C70.8116 22.704 71.0356 21.6 71.4836 20.64C71.9476 19.664 72.5876 18.912 73.4036 18.384C74.2196 17.84 75.1476 17.568 76.1876 17.568C77.0676 17.568 77.8516 17.76 78.5396 18.144C79.2276 18.512 79.7556 19.032 80.1236 19.704V17.88H83.0756ZM77.0036 27.84C77.9956 27.84 78.7636 27.496 79.3076 26.808C79.8516 26.12 80.1236 25.152 80.1236 23.904C80.1236 22.624 79.8516 21.64 79.3076 20.952C78.7636 20.264 77.9876 19.92 76.9796 19.92C75.9876 19.92 75.2116 20.28 74.6516 21C74.1076 21.704 73.8356 22.688 73.8356 23.952C73.8356 25.2 74.1076 26.16 74.6516 26.832C75.2116 27.504 75.9956 27.84 77.0036 27.84ZM97.9349 12.336V30H94.9829V28.056C94.6149 28.728 94.0869 29.256 93.3989 29.64C92.7109 30.008 91.9269 30.192 91.0469 30.192C90.0069 30.192 89.0789 29.928 88.2629 29.4C87.4469 28.872 86.8069 28.128 86.3429 27.168C85.8949 26.192 85.6709 25.08 85.6709 23.832C85.6709 22.584 85.8949 21.488 86.3429 20.544C86.7909 19.6 87.4229 18.872 88.2389 18.36C89.0549 17.832 89.9909 17.568 91.0469 17.568C91.9109 17.568 92.6789 17.752 93.3509 18.12C94.0389 18.472 94.5669 18.976 94.9349 19.632V12.336H97.9349ZM91.8389 27.84C92.8309 27.84 93.5989 27.496 94.1429 26.808C94.7029 26.12 94.9829 25.144 94.9829 23.88C94.9829 22.616 94.7109 21.64 94.1669 20.952C93.6229 20.264 92.8549 19.92 91.8629 19.92C90.8549 19.92 90.0709 20.264 89.5109 20.952C88.9669 21.624 88.6949 22.584 88.6949 23.832C88.6949 25.096 88.9669 26.08 89.5109 26.784C90.0709 27.488 90.8469 27.84 91.8389 27.84ZM101.202 17.88H104.178V30H101.202V17.88ZM104.346 12.384V15.336H101.01V12.384H104.346ZM119.052 17.88V30H116.1V28.056C115.732 28.728 115.204 29.256 114.516 29.64C113.828 30.008 113.044 30.192 112.164 30.192C111.108 30.192 110.172 29.936 109.356 29.424C108.54 28.912 107.908 28.184 107.46 27.24C107.012 26.296 106.788 25.2 106.788 23.952C106.788 22.704 107.012 21.6 107.46 20.64C107.924 19.664 108.564 18.912 109.38 18.384C110.196 17.84 111.124 17.568 112.164 17.568C113.044 17.568 113.828 17.76 114.516 18.144C115.204 18.512 115.732 19.032 116.1 19.704V17.88H119.052ZM112.98 27.84C113.972 27.84 114.74 27.496 115.284 26.808C115.828 26.12 116.1 25.152 116.1 23.904C116.1 22.624 115.828 21.64 115.284 20.952C114.74 20.264 113.964 19.92 112.956 19.92C111.964 19.92 111.188 20.28 110.628 21C110.084 21.704 109.812 22.688 109.812 23.952C109.812 25.2 110.084 26.16 110.628 26.832C111.188 27.504 111.972 27.84 112.98 27.84ZM122.32 12.336H125.296V30H122.32V12.336ZM128.601 22.32H135.825V24.72H128.601V22.32ZM154.197 12.912V30H151.125V22.584H142.365V30H139.317V12.912H142.365V20.064H151.125V12.912H154.197ZM168.295 24.096H159.943C160.007 25.392 160.327 26.352 160.903 26.976C161.495 27.584 162.367 27.888 163.519 27.888C164.847 27.888 166.079 27.456 167.215 26.592L168.079 28.656C167.503 29.12 166.791 29.496 165.943 29.784C165.111 30.056 164.263 30.192 163.399 30.192C161.415 30.192 159.855 29.632 158.719 28.512C157.583 27.392 157.015 25.856 157.015 23.904C157.015 22.672 157.263 21.576 157.759 20.616C158.255 19.656 158.951 18.912 159.847 18.384C160.743 17.84 161.759 17.568 162.895 17.568C164.559 17.568 165.871 18.112 166.831 19.2C167.807 20.272 168.295 21.752 168.295 23.64V24.096ZM162.967 19.728C162.167 19.728 161.511 19.968 160.999 20.448C160.503 20.912 160.183 21.592 160.039 22.488H165.679C165.583 21.576 165.303 20.888 164.839 20.424C164.391 19.96 163.767 19.728 162.967 19.728ZM182.427 17.88V30H179.475V28.056C179.107 28.728 178.579 29.256 177.891 29.64C177.203 30.008 176.419 30.192 175.539 30.192C174.483 30.192 173.547 29.936 172.731 29.424C171.915 28.912 171.283 28.184 170.835 27.24C170.387 26.296 170.163 25.2 170.163 23.952C170.163 22.704 170.387 21.6 170.835 20.64C171.299 19.664 171.939 18.912 172.755 18.384C173.571 17.84 174.499 17.568 175.539 17.568C176.419 17.568 177.203 17.76 177.891 18.144C178.579 18.512 179.107 19.032 179.475 19.704V17.88H182.427ZM176.355 27.84C177.347 27.84 178.115 27.496 178.659 26.808C179.203 26.12 179.475 25.152 179.475 23.904C179.475 22.624 179.203 21.64 178.659 20.952C178.115 20.264 177.339 19.92 176.331 19.92C175.339 19.92 174.563 20.28 174.003 21C173.459 21.704 173.187 22.688 173.187 23.952C173.187 25.2 173.459 26.16 174.003 26.832C174.563 27.504 175.347 27.84 176.355 27.84ZM185.695 12.336H188.671V30H185.695V12.336ZM195.768 20.136V25.56C195.768 26.984 196.432 27.696 197.76 27.696C198.128 27.696 198.528 27.632 198.96 27.504V29.88C198.432 30.072 197.792 30.168 197.04 30.168C195.664 30.168 194.608 29.784 193.872 29.016C193.136 28.248 192.768 27.144 192.768 25.704V20.136H190.44V17.88H192.768V14.928L195.768 13.92V17.88H198.984V20.136H195.768ZM207.982 17.568C210.878 17.568 212.326 19.232 212.326 22.56V30H209.326V22.704C209.326 21.744 209.142 21.048 208.774 20.616C208.406 20.168 207.838 19.944 207.07 19.944C206.158 19.944 205.422 20.24 204.862 20.832C204.302 21.408 204.022 22.176 204.022 23.136V30H201.046V12.336H204.022V19.632C204.438 18.976 204.99 18.472 205.678 18.12C206.366 17.752 207.134 17.568 207.982 17.568Z" fill="#233348"/>
<circle cx="20.5" cy="20.5" r="20.5" fill="#458FF6"/>
<path d="M29.238 30H25.702L23.336 23.838C23.128 23.266 22.8073 22.8673 22.374 22.642C21.9407 22.4167 21.3773 22.304 20.684 22.304H17.33V30H14.002V11.488H21.932C24.0293 11.488 25.624 11.9473 26.716 12.866C27.808 13.7847 28.354 15.102 28.354 16.818C28.354 18.0487 28.0247 19.0973 27.366 19.964C26.7247 20.8133 25.806 21.42 24.61 21.784C25.702 22.0093 26.4907 22.772 26.976 24.072L29.238 30ZM21.464 19.704C22.7293 19.704 23.6653 19.47 24.272 19.002C24.8787 18.534 25.182 17.8233 25.182 16.87C25.182 15.934 24.8787 15.2407 24.272 14.79C23.6827 14.322 22.7467 14.088 21.464 14.088H17.278V19.704H21.464Z" fill="white"/>
</svg>
